<?xml version="1.0" encoding="UTF-8"?>
<svg id="Layer_1" data-name="Layer 1" xmlns="http://www.w3.org/2000/svg" viewBox="0 0 262.23 342.25">
  <defs>
    <style>
      .cls-1 {
        fill: #231f20;
      }
    </style>
  </defs>
  <circle class="cls-1" cx="133.57" cy="4.33" r="4.33"/>
  <g>
    <rect class="cls-1" x="128.86" y="13.68" width="9.41" height="235.13"/>
    <path class="cls-1" d="M188.03,197.49h-4.78L78.98,60.06v137.43h-4.78V52.64h4.78l104.27,137.23V52.64h4.78v144.85Z"/>
    <path class="cls-1" d="M57,280.97c7.46,6.06,11.19,14.63,11.19,25.7s-3.73,19.64-11.19,25.7c-7.46,6.06-18.34,9.09-32.63,9.09H2.58v-69.58h21.79c14.29,0,25.17,3.03,32.63,9.09ZM55.36,330.99c6.99-5.8,10.48-13.9,10.48-24.31s-3.5-18.52-10.48-24.32c-6.99-5.79-17.32-8.7-30.98-8.7H4.94v66.02h19.44c13.66,0,23.99-2.9,30.98-8.7Z"/>
    <path class="cls-1" d="M87.63,271.88v69.58h-2.36v-69.58h2.36Z"/>
    <path class="cls-1" d="M163.84,341.46h-2.36l-51.47-65.92v65.92h-2.36v-69.48h2.36l51.47,65.82v-65.82h2.36v69.48Z"/>
    <path class="cls-1" d="M200.06,337.76c-6.01-3-10.7-7.2-14.08-12.6-3.38-5.4-5.07-11.53-5.07-18.38s1.69-12.98,5.07-18.38c3.37-5.4,8.07-9.6,14.08-12.6,6.01-3,12.82-4.5,20.44-4.5s14.43,1.5,20.44,4.5c6.01,3,10.7,7.2,14.08,12.6,3.37,5.41,5.07,11.53,5.07,18.38s-1.69,12.98-5.07,18.38c-3.38,5.41-8.07,9.6-14.08,12.6-6.01,3-12.82,4.5-20.44,4.5s-14.43-1.5-20.44-4.5ZM239.34,336.37c5.66-2.73,10.11-6.65,13.37-11.76,3.26-5.11,4.89-11.05,4.89-17.84s-1.63-12.73-4.89-17.84c-3.26-5.11-7.71-9.02-13.37-11.76-5.65-2.73-11.94-4.1-18.85-4.1s-13.19,1.37-18.85,4.1c-5.66,2.73-10.11,6.65-13.37,11.76-3.26,5.11-4.89,11.05-4.89,17.84s1.63,12.73,4.89,17.84c3.26,5.11,7.71,9.03,13.37,11.76,5.65,2.73,11.94,4.1,18.85,4.1s13.19-1.37,18.85-4.1Z"/>
    <path class="cls-1" d="M147.71,1.24v8.36c59.91,7.7,106.24,56.45,106.24,115.27,0,64.15-55.1,116.34-122.83,116.34S8.29,189.02,8.29,124.87C8.29,64.45,57.17,14.65,119.44,9.06V.75C52.59,6.38,0,59.89,0,124.87c0,68.72,58.82,124.62,131.12,124.62s131.12-55.91,131.12-124.62c0-63.38-50.03-115.86-114.52-123.63Z"/>
  </g>
</svg>